<svg width="108" height="45" viewBox="0 0 108 45">
  <path d="M97.17 28.52a11.06 11.06 0 0 0-.78 1.81 8.59 8.59 0 0 0 0 1.72 2.16 2.16 0 0 1-.12.6c-.18.54-.66.63-1.12.65a14.18 14.18 0 0 1-1.65-.05 1 1 0 0 1-1-1.07c0-.61-.05-1.23-.07-1.84v-1.33c0-1.13 0-2.25-.07-3.38 0-.73-.43-1.1-1.26-1.11h-3.9a2.36 2.36 0 0 0-.63.12.8.8 0 0 0-.62.82c0 .53.09 1.05.11 1.58a7.29 7.29 0 0 1-.08.92v.24c0 .66-.06 1.31-.06 2s0 1.21.06 1.81c0 1-.31 1.22-1.08 1.3a6.26 6.26 0 0 1-1.9-.1c-.63-.12-.86-.56-.91-1.27a11.29 11.29 0 0 1 .09-1.17v-.86a3.69 3.69 0 0 1 0-.82 10.9 10.9 0 0 0 0-2 9.54 9.54 0 0 1 .12-1.23 1.08 1.08 0 0 0-1-1.32 3 3 0 0 0-2.07.27c-.37.21-.62 0-.92-.11a5.14 5.14 0 0 0-1-.21h-2.86a2.08 2.08 0 0 0-1.82.85 2.6 2.6 0 0 0-.35 1.71c.07.69 0 1.39 0 2.08a4.32 4.32 0 0 0 .32 1.3 2.28 2.28 0 0 1-1.26 2.75 2.33 2.33 0 0 1-.6.11h-4.93a1.16 1.16 0 0 1-1.21-.72 1.8 1.8 0 0 1-.12-.6v-6.1a2.21 2.21 0 0 0-.16-.87c-.21-.47-.69-.49-1.11-.5h-5.78c-.71 0-1.13.25-1.21.79a8.63 8.63 0 0 0 0 1.25v1.2c0 .4-.06.77-.07 1.15v3A1.14 1.14 0 0 1 55 33.18a7 7 0 0 1-1-.07 3.52 3.52 0 0 0-1.34.06 6.17 6.17 0 0 1-.95 0h-1a11.87 11.87 0 0 1-1.42 0 1 1 0 0 1-.84-1c0-.4-.06-.81-.07-1.21 0-1-.06-1.92-.06-2.88 0-.65 0-1.29.05-1.94a6.11 6.11 0 0 0-.06-.87.87.87 0 0 0-.68-.7 4 4 0 0 0-.71-.07h-6.2a3.48 3.48 0 0 0-.71.08 1 1 0 0 0-.73 1v5.13c0 .43.06.85.06 1.28a1 1 0 0 1-1.15 1.14h-5a1.38 1.38 0 0 1-1.22-.4 1 1 0 0 1-.25-.51c0-1.07-.1-2.15-.05-3.22a11.6 11.6 0 0 0-.07-1.6v-1.6c0-1.16-.5-1.31-1.26-1.32h-6.22c-.47 0-1 .06-1.16.65a8.08 8.08 0 0 0-.07 1.45V31.44a5.28 5.28 0 0 1-.07 1.13.87.87 0 0 1-.86.63c-.47 0-.93.06-1.4.06a2.33 2.33 0 0 1-.64-.09c-.61-.17-.83-.55-.88-1.28 0-.55.06-1.1 0-1.65a8.9 8.9 0 0 1 .06-1.79 5.36 5.36 0 0 0 0-.77c0-.72.05-1.44.05-2.16 0-.38-.09-.79-.5-.9a3.69 3.69 0 0 0-1.34-.11 8.29 8.29 0 0 0-1.24.4.61.61 0 0 1-.44 0 2.57 2.57 0 0 0-1.37-.39H8.73a2.94 2.94 0 0 0-.67.08.9.9 0 0 0-.7.9c0 .38.05.77.06 1.15s0 .86 0 1.29V30.12c0 .64-.09 1.28-.12 1.92a1 1 0 0 1-.77 1 .76.76 0 0 1-.93-.4 3 3 0 0 1-.19-.7c0-.19 0-.39-.07-.58-.09-.41-.33-.56-.78-.52a.7.7 0 0 0-.59.65c0 .28 0 .56-.06.84a.8.8 0 0 1-.68.76 13.34 13.34 0 0 1-2.23 0c-.7-.09-1-.52-1-1.14v-2.73-1.48c0-.48.08-1.17.07-1.74C.06 24 0 22.1 0 20.15A1 1 0 0 1 1 19c.85-.13 1.13-.42 1.13-1.27v-8.7c0-.79-.25-1.09-1-1.26l-.29-.09a.9.9 0 0 1-.82-1C0 4.8 0 2.94 0 1.09 0 .34.35.1 1.1 0h97.62c.48 0 .94.06 1.15.59a1.58 1.58 0 0 1 .12.53v5.47a1 1 0 0 1-1 1.13c-.87.1-1.18.41-1.18 1.28v8.67c0 .8.26 1.12 1 1.28l.36.06a.92.92 0 0 1 .84 1v12.16a1 1 0 0 1-1.11 1 1.05 1.05 0 0 1-1-1.06 16.87 16.87 0 0 0-.5-3.5.68.68 0 0 0-.07-.13zm-13.46-16.3v5.4c0 .44 0 .95.5 1.17a2.23 2.23 0 0 0 .9.17h6.53c.73 0 1.46 0 2.19-.06a.82.82 0 0 0 .79-.65 3 3 0 0 0 .08-.67V9.1a2.92 2.92 0 0 0-.08-.67c-.13-.56-.6-.65-1.06-.7-.76-.09-1-.36-1.11-1.1s-.28-1-.72-1.08a3.11 3.11 0 0 0-.67-.08h-5.95a3.07 3.07 0 0 0-.67.08.82.82 0 0 0-.65.69 4.75 4.75 0 0 0-.07.83c-.01 1.72-.01 3.44-.01 5.15zm-27.77 0v5.31a3.36 3.36 0 0 0 .08.71.82.82 0 0 0 .65.65 3.22 3.22 0 0 0 .71.08h5.21c.47 0 .93 0 1.4-.06a.84.84 0 0 0 .8-.71c0-.24 0-.49.07-.74a4.25 4.25 0 0 1 .16-.94c.6-1.58 1.23-3.14 1.84-4.71.38-1 .77-1.94 1.13-2.92.22-.59 0-.92-.62-1-.34 0-.68 0-1-.06-.84 0-1.12-.39-1.19-1.15a2.36 2.36 0 0 0-.18-.73c-.21-.45-.67-.46-1.06-.47h-6.72c-.41 0-.88 0-1.08.49a2.27 2.27 0 0 0-.17.87c-.04 1.8-.03 3.6-.03 5.4zm-40.4 0V6.85a2.31 2.31 0 0 0-.17-.9c-.21-.47-.7-.48-1.11-.49h-5.4c-.41 0-.87 0-1.09.47a2.89 2.89 0 0 0-.19.73c-.13.73-.33.92-1 1-.17 0-.35 0-.52.09-.47.13-.7.54-.71 1.25v8.58a2.09 2.09 0 0 0 .17.83c.21.47.7.49 1.12.49h7.67c.42 0 .9 0 1.11-.5a2.22 2.22 0 0 0 .17-.87c-.05-1.71-.06-3.53-.06-5.3zm65 0v-5.4c0-.44 0-.95-.48-1.18a2.26 2.26 0 0 0-.86-.18h-1.95c-1.45 0-2.9 0-4.35.07a.82.82 0 0 0-.84.78 7 7 0 0 1-.25 1.32c-.67 1.78-1.38 3.54-2.07 5.31-.32.81-.66 1.61-1 2.43s-.06 1 .67 1.09c.44.05.89.05 1.34.07.84 0 1.17.38 1.21 1.19a2.17 2.17 0 0 0 .17.77c.22.47.7.48 1.12.48h6c.43 0 .93 0 1.13-.52a2.57 2.57 0 0 0 .15-.94c.05-1.76.04-3.51.04-5.27zm-32.42 0v-1.38c0-1.5 0-3-.07-4.51a.82.82 0 0 0-.66-.78 3.34 3.34 0 0 0-.68-.08h-8a3.21 3.21 0 0 0-.67.08.74.74 0 0 0-.59.75 4.21 4.21 0 0 0 .06.61c.17 1.11.33 2.21.51 3.32.22 1.34.46 2.67.68 4 .2 1.18.38 2.37.57 3.56.08.51.27 1 .83 1.1a3 3 0 0 0 .7.08h5.9a4 4 0 0 0 .71-.07.86.86 0 0 0 .67-.71 6.93 6.93 0 0 0 .07-.87v-5.1zm-20.4-6.75h-4.21a3.06 3.06 0 0 0-.76.12.5.5 0 0 0-.36.6 4.21 4.21 0 0 0 .18.58A6.41 6.41 0 0 1 23 8.91c0 .39 0 .79-.06 1.18a3.91 3.91 0 0 1-.6 2 2.2 2.2 0 0 0-.4 1.83c.33 1.31.65 2.62 1 3.92.22.86.55 1.14 1.39 1.15h5.65c.81 0 1.16-.28 1.32-1.17.05-.28.09-.57.14-.85.14-.84.29-1.68.43-2.52s.26-1.6.4-2.4.32-1.88.48-2.82.29-1.68.42-2.52c.1-.62-.1-1-.63-1.15a4.51 4.51 0 0 0-.86-.07zM53 6.9c0-.21 0-.43-.07-.66a.82.82 0 0 0-.06-.17.8.8 0 0 0-.93-.47.64.64 0 0 0-.44.66 7.27 7.27 0 0 0 .82 2.25c.07.12.22.18.33.27a1.3 1.3 0 0 0 .21-.39c.05-.49.09-.98.14-1.49zm-1.48 9h-.11a1.84 1.84 0 0 0-.17.47 12 12 0 0 0-.06 1.63 1.37 1.37 0 0 0 .32.7.58.58 0 0 0 .77.07.51.51 0 0 0 .23-.63c-.19-.6-.41-1.19-.64-1.78a1.94 1.94 0 0 0-.35-.43zM36.08 18a1.89 1.89 0 0 0 0-.25c-.07-.53-.33-1-.89-.91a.71.71 0 0 0-.59.52 1.21 1.21 0 0 0 0 1.23.81.81 0 0 0 1.05.25c.35-.14.45-.47.43-.84zM18.65 9.26v.57c0 .19.23.58.45.6s.43-.17.5-.42a1.94 1.94 0 0 0-.08-1.61.57.57 0 0 0-.42-.27.56.56 0 0 0-.38.34 3.87 3.87 0 0 0-.07.79zm.44 7.11h-.15a1.45 1.45 0 0 0-.13.33 10.76 10.76 0 0 0-.12 1.13 1.37 1.37 0 0 0 .12.56.42.42 0 0 0 .81-.19 2.76 2.76 0 0 0-.07-.67c-.13-.38-.31-.76-.46-1.15zM50 43.3H1.26c-.48 0-.94-.08-1.13-.62a1.77 1.77 0 0 1-.13-.57v-2.64a2.55 2.55 0 0 1 .22-1.1A1.84 1.84 0 0 0 .32 37a11.81 11.81 0 0 1-.24-1.74 1 1 0 0 1 .91-1c.69 0 1.37-.06 2.06-.06h2.93c.93 0 1.42.54 1.1 1.52a3.67 3.67 0 0 0-.27.91c-.06 1.13.44 1.45 1.4 1.47h6.22a1.85 1.85 0 0 0 1.2-.31.54.54 0 0 0 .19-.4c-.08-.67-.2-1.34-.3-2a.63.63 0 0 1 .07-.43c.08-.11.33-.25.38-.21a.81.81 0 0 1 .35.49 10.77 10.77 0 0 1-.06 1.75c-.08.67.15 1 .85 1.07a10.44 10.44 0 0 0 1.2 0 .86.86 0 0 0 .8-.69 5.46 5.46 0 0 0 .08-1.81c-.09-.91.31-1.25 1.19-1.31a11.66 11.66 0 0 1 1.68.06c.59 0 1 .76.88 1.41a10.45 10.45 0 0 0 0 1.84c0 .28.27.45.55.5a4.06 4.06 0 0 0 .74.07h6.32a2.69 2.69 0 0 0 .74-.07c.55-.16.6-.28.54-.88A14.64 14.64 0 0 1 31.7 35c0-.5.5-.82 1.17-.82h5c.44 0 .93 0 1.18.51a1.15 1.15 0 0 1 .14.49v2.2a.52.52 0 0 0 .5.61 4.38 4.38 0 0 0 .74.07h6.79a3.23 3.23 0 0 0 .88-.15.56.56 0 0 0 .4-.6c0-.5-.06-1-.05-1.5s0-1.13.53-1.45a1.73 1.73 0 0 1 .79-.2h5a1.21 1.21 0 0 1 1.07.36 1.41 1.41 0 0 1 .29.71v2c0 .45.13.63.56.71a4.19 4.19 0 0 0 .74.07h5.84a4.15 4.15 0 0 0 .88-.13.49.49 0 0 0 .4-.55v-1.89c0-1 .5-1.31 1.33-1.32h4.93a2.17 2.17 0 0 1 1.54.67.87.87 0 0 1 .15.94c-.15.5-.32 1-.48 1.49s0 .54.33.64a2.19 2.19 0 0 0 .52.08c1.49 0 3 .06 4.48.06a3.52 3.52 0 0 0 1-.16c.51-.15.57-.35.5-.87a16.28 16.28 0 0 1-.11-1.86c0-.11.16-.23.25-.35a1.55 1.55 0 0 1 .3.25.48.48 0 0 1 .06.29c0 .65-.09 1.3-.11 2a.49.49 0 0 0 .17.37A1.61 1.61 0 0 0 80 38a9.37 9.37 0 0 0 1.26 0c.75 0 .92-.5 1-1.1s0-1 0-1.48a1.06 1.06 0 0 1 1.18-1.19h1.45A1 1 0 0 1 86 35.4c0 .63 0 1.27-.06 1.9 0 .45.13.63.56.71a4.24 4.24 0 0 0 .74.07h4.05a3.74 3.74 0 0 0 .88-.13.47.47 0 0 0 .37-.51c0-.58 0-1.16-.06-1.75a1.23 1.23 0 0 1 .5-1.27 1.28 1.28 0 0 1 .58-.16h2.23l3 .06c.88 0 1.13.44 1.18 1.15a7 7 0 0 1-.22 2.34 1.33 1.33 0 0 0 0 .48c.06.45.16.89.17 1.34v2.42c0 .81-.39 1.25-1.24 1.25zm2.39-6.91h-.31a.89.89 0 0 0-.82.78.85.85 0 0 0 .65.84 3.92 3.92 0 0 0 .73 0 .83.83 0 0 0 .74-1.19c-.21-.45-.6-.44-1-.43z"/>
    <path d="M15.53 31.59c0-.61-.11-1.23-.11-1.84 0-.39.1-.78.11-1.17a4 4 0 0 0-.08-1 2.07 2.07 0 0 1 .24-1.34c.1-.24.24-.23.39 0a1.75 1.75 0 0 1 .19 1.54 3.52 3.52 0 0 0 0 1.43v2.11a6.28 6.28 0 0 1 0 1c0 .14-.22.35-.35.35s-.32-.19-.37-.33a3.56 3.56 0 0 1-.11-.76zM78.86 28.34a2.19 2.19 0 0 1 .25 1.74 2.28 2.28 0 0 0 0 .67c0 .43.1.86.13 1.29a.55.55 0 0 1-.1.31c-.13.19-.29.17-.4 0a1.68 1.68 0 0 1-.08-1.35 1.35 1.35 0 0 0 0-1 1.71 1.71 0 0 1 .2-1.66zM78.87 28a1.44 1.44 0 0 1-.17-1.17c0-.08.13-.14.2-.21a1 1 0 0 1 .16.22 1.25 1.25 0 0 1-.19 1.16z"/>
</svg>